<svg width="146" height="48" viewBox="0 0 146 48" fill="none" xmlns="http://www.w3.org/2000/svg">
<path d="M14.3398 24.6486L6.59457 32.5685V43.6819H0.5V0.76123H6.59457V24.7764L29.7032 0.76123H36.6865L18.5298 20.05L37.9562 43.6819H30.8459L14.3398 24.6486Z" fill="#FF6060"/>
<path d="M82.3958 40.2329L84.8082 35.6343C87.6015 37.5504 91.9185 38.9555 96.1085 38.9555C101.568 38.9555 103.727 37.2949 103.727 34.4846C103.727 27.2034 83.2845 33.4627 83.2845 20.5609C83.2845 14.6849 88.4903 10.8527 96.7434 10.8527C100.933 10.8527 105.758 12.0024 108.552 13.7907L106.012 18.3894C103.092 16.4733 99.9177 15.8346 96.7434 15.8346C91.6646 15.8346 89.1252 17.7507 89.1252 20.3055C89.1252 27.9699 109.567 21.7106 109.567 34.3569C109.567 40.2329 104.235 43.9374 95.6007 43.9374C90.3949 44.0651 85.0621 42.4045 82.3958 40.2329Z" fill="#FF6060"/>
<path d="M145.5 24.0099V43.6819H139.913V39.3387C138.009 42.2768 134.327 43.9374 129.248 43.9374C121.884 43.9374 117.313 39.9774 117.313 34.3569C117.313 29.1195 120.614 24.9041 130.264 24.9041H139.533V23.7544C139.533 18.7726 136.612 15.9623 130.899 15.9623C127.089 15.9623 123.153 17.3674 120.614 19.4113L118.202 14.9404C121.503 12.2578 126.328 10.725 131.533 10.725C140.548 10.8527 145.5 15.1959 145.5 24.0099ZM139.66 33.7182V29.1195H130.645C124.804 29.1195 123.153 31.4188 123.153 34.1014C123.153 37.2949 125.82 39.3387 130.264 39.3387C134.708 39.4665 138.263 37.5504 139.66 33.7182Z" fill="#FF6060"/>
<path d="M63.6042 35.1233V43.8096L67.2864 41.6381V32.9517L63.6042 35.1233Z" fill="#FF6060"/>
<path d="M73.7618 24.5209L58.6524 15.7068L50.2724 10.8527L42.0193 25.2873L42.1463 38.8278L57.1287 47.6418L58.6524 46.7476V33.9736L65.3818 22.0938L72.2382 26.0538V38.8278L73.7618 37.9336V24.5209Z" fill="#FF6060"/>
</svg>
